<svg id="Capa_1" data-name="Capa 1" xmlns="http://www.w3.org/2000/svg" xmlns:xlink="http://www.w3.org/1999/xlink" viewBox="0 0 397 340.5"><defs><style>.cls-1{fill:#a67c52;}.cls-2{fill:#1b1464;}.cls-3{fill:#c69c6d;}.cls-4{fill:#fff;}.cls-5{fill:url(#Degradado_sin_nombre_6);}</style><linearGradient id="Degradado_sin_nombre_6" x1="352" y1="447" x2="352" y2="366" gradientUnits="userSpaceOnUse"><stop offset="0" stop-color="#fff"/><stop offset="1" stop-color="#0071bc"/></linearGradient></defs><title>logo</title><rect class="cls-1" width="397" height="300" rx="22.14"/><rect class="cls-2" x="30.5" y="28" width="336" height="243" rx="12"/><path class="cls-3" d="M154.77,238h87.45A13.77,13.77,0,0,1,256,251.77V271a0,0,0,0,1,0,0H141a0,0,0,0,1,0,0V251.77A13.77,13.77,0,0,1,154.77,238Z"/><path class="cls-4" d="M376.49,320.83a3.9,3.9,0,0,1,0,5.54l-3.18,3.18a3.9,3.9,0,0,1-5.54,0L346.33,308.1l-21.45,21.45a3.9,3.9,0,0,1-5.54,0l-3.18-3.18a3.9,3.9,0,0,1,0-5.54l21.45-21.45-21.45-21.44a3.9,3.9,0,0,1,0-5.54l3.18-3.18a3.9,3.9,0,0,1,5.54,0l21.45,21.44,21.44-21.44a3.9,3.9,0,0,1,5.54,0l3.18,3.18a3.9,3.9,0,0,1,0,5.54l-21.44,21.44Z" transform="translate(-57.5 -106.5)"/><polygon class="cls-4" points="168.5 149.5 95.81 224.29 88.09 209.54 88.13 209.51 74.61 183.67 83.23 186.06 96.98 202.91 168.5 149.5"/><path class="cls-5" d="M378,420.17C378,435,366.36,447,352,447s-26-12-26-26.83,28.1-63.92,27-52.45C352,378.13,378,405.36,378,420.17Z" transform="translate(-57.5 -106.5)"/></svg>